#!OML:ASF F:\VICON\USERDATA\INSTALL\rory3\rory3.ASF
:FULLY-SPECIFIED
:DEGREES
252
root 8.59927 16.7928 22.7323 0.248343 33.7454 -3.64367
lowerback 5.1241 1.43398 2.94486
upperback -0.368028 2.20443 2.89253
thorax -3.25836 1.07751 1.15839
lowerneck -18.2925 -3.72761 -9.43181
upperneck 19.611 -3.39418 4.17546
head 9.4581 -1.81054 2.54718
rclavicle -7.00716e-015 1.51076e-014
rhumerus -26.1375 -9.80777 -76.4364
rradius 39.8961
rwrist -2.86746
rhand -16.8895 15.1332
rfingers 7.12502
rthumb 9.34194 -14.6398
lclavicle -7.00716e-015 1.51076e-014
lhumerus -43.7125 21.1938 76.5974
lradius 18.9884
lwrist -16.89
lhand -13.3728 25.2474
lfingers 7.12502
lthumb 12.7338 54.8391
rfemur 14.3004 4.74888 30.4547
rtibia 21.3563
rfoot -16.8557 -1.33149
rtoes -20.307
lfemur -35.613 -2.03147 -18.784
ltibia 23.839
lfoot -9.83913 4.80458
ltoes -7.99334
253
root 8.75817 16.8101 22.9497 0.0316554 33.5892 -3.85114
lowerback 5.08731 1.50523 3.06358
upperback -0.33943 2.30649 2.95935
thorax -3.20643 1.1278 1.15459
lowerneck -18.1666 -3.74014 -9.27106
upperneck 19.5653 -3.42159 3.97042
head 9.41465 -1.83463 2.44574
rclavicle -1.42131e-014 -3.18055e-015
rhumerus -26.3845 -10.1853 -76.2574
rradius 39.9643
rwrist -2.82787
rhand -17.1613 15.0826
rfingers 7.12502
rthumb 9.07969 -14.7019
lclavicle -1.42131e-014 -3.18055e-015
lhumerus -43.9987 22.5157 75.6126
lradius 18.2364
lwrist -18.4166
lhand -13.2265 25.1592
lfingers 7.12502
lthumb 12.8748 54.7421
rfemur 14.1459 4.86675 30.511
rtibia 22.8184
rfoot -15.2248 0.607385
rtoes -13.6241
lfemur -35.4059 -1.80899 -18.8247
ltibia 25.1506
lfoot -8.12752 3.61719
ltoes -7.31281
254
root 8.92476 16.8298 23.1701 -0.424748 33.8712 -4.14305
lowerback 5.24157 1.39674 3.34494
upperback -0.372331 2.19229 3.01895
thorax -3.31967 1.06557 1.0634
lowerneck -18.039 -3.74891 -9.05272
upperneck 19.7291 -3.44072 3.6769
head 9.44102 -1.86292 2.30702
rclavicle 3.68249e-014 -1.43125e-014
rhumerus -26.819 -10.3786 -76.1211
rradius 40.0522
rwrist -2.95821
rhand -17.3019 15.0814
rfingers 7.12502
rthumb 8.94404 -14.7091
lclavicle 3.68249e-014 -1.43125e-014
lhumerus -44.4981 23.4286 74.6267
lradius 17.6308
lwrist -19.6666
lhand -13.0999 23.3217
lfingers 7.12502
lthumb 12.9969 52.8968
rfemur 14.2243 4.46029 30.6602
rtibia 24.5217
rfoot -13.3897 1.71597
rtoes -12.2201
lfemur -35.2847 -1.78779 -18.8367
ltibia 26.4225
lfoot -6.12541 2.7969
ltoes -8.40662
255
root 9.09455 16.8441 23.3897 -0.423282 34.1744 -3.5474
lowerback 5.41584 1.27573 2.8795
upperback -0.447852 2.0069 2.87737
thorax -3.50682 0.977481 1.18694
lowerneck -17.5628 -3.74106 -9.26035
upperneck 19.8047 -3.47748 3.93061
head 9.39189 -1.87227 2.42993
rclavicle 1.19842e-013 1.66979e-014
rhumerus -27.4054 -10.5869 -75.9837
rradius 40.1081
rwrist -2.78942
rhand -17.4282 14.659
rfingers 7.12502
rthumb 8.82214 -15.1366
lclavicle 1.19842e-013 1.66979e-014
lhumerus -45.0868 23.8065 73.9285
lradius 17.1619
lwrist -20.5464
lhand -12.7019 22.1735
lfingers 7.12502
lthumb 13.3806 51.7238
rfemur 14.148 4.10447 29.9636
rtibia 26.601
rfoot -11.2013 2.85313
rtoes -14.3636
lfemur -35.0232 -1.91465 -19.5568
ltibia 27.5503
lfoot -4.8719 2.16832
ltoes -9.73945
256
root 9.26027 16.8705 23.6114 -0.165242 34.315 -2.47751
lowerback 5.76225 1.24413 2.00726
upperback -0.682989 1.91502 2.58326
thorax -3.96277 0.940886 1.3689
lowerneck -16.5289 -3.58154 -9.20506
upperneck 19.6708 -3.37629 3.95902
head 9.14831 -1.82459 2.45288
rclavicle 4.27387e-014 -7.95139e-015
rhumerus -28.4252 -10.8957 -75.8432
rradius 40.1926
rwrist -2.66783
rhand -17.4083 14.1579
rfingers 7.12502
rthumb 8.84136 -15.6369
lclavicle 4.27387e-014 -7.95139e-015
lhumerus -45.7615 24.0529 73.1234
lradius 16.631
lwrist -21.3504
lhand -12.1524 23.7705
lfingers 7.12502
lthumb 13.9102 53.2853
rfemur 13.6529 3.87552 28.8081
rtibia 29.3234
rfoot -8.61004 4.21326
rtoes -15.8958
lfemur -34.3391 -2.27044 -20.4961
ltibia 28.3945
lfoot -4.07769 0.94468
ltoes -8.57476
257
root 9.42389 16.8975 23.8253 0.0772948 34.6096 -1.52894
lowerback 6.15868 1.17796 1.35468
upperback -0.918776 1.78241 2.25251
thorax -4.43844 0.882607 1.39463
lowerneck -15.8469 -3.54797 -8.96282
upperneck 19.6254 -3.41661 3.78146
head 9.00319 -1.84931 2.35244
rclavicle -6.77607e-014 1.51076e-014
rhumerus -29.4565 -11.4126 -75.7267
rradius 40.1684
rwrist -2.8568
rhand -17.2374 13.9592
rfingers 7.12502
rthumb 9.00628 -15.8285
lclavicle -6.77607e-014 1.51076e-014
lhumerus -46.2154 24.2045 72.4021
lradius 16.1925
lwrist -22.1815
lhand -11.9093 25.2149
lfingers 7.12502
lthumb 14.1444 54.7134
rfemur 12.7054 3.53399 27.7427
rtibia 32.566
rfoot -5.20891 5.61272
rtoes -15.0727
lfemur -33.553 -2.37886 -21.4402
ltibia 29.0572
lfoot -3.17282 -0.858607
ltoes -7.19921
258
root 9.58373 16.9107 24.0307 0.512811 34.5139 -0.694141
lowerback 6.01975 1.22073 0.687285
upperback -0.872665 1.77138 2.00894
thorax -4.32357 0.889915 1.52099
lowerneck -16.1011 -3.75521 -8.89555
upperneck 19.8441 -3.69761 3.76837
head 9.14313 -1.97768 2.29922
rclavicle -9.68703e-014 -2.8625e-014
rhumerus -29.8014 -11.9341 -75.7095
rradius 39.9086
rwrist -3.25399
rhand -17.1175 13.7354
rfingers 7.12502
rthumb 9.12192 -16.0473
lclavicle -9.68703e-014 -2.8625e-014
lhumerus -46.2503 25.3277 71.3234
lradius 15.5714
lwrist -24.0644
lhand -11.845 24.0314
lfingers 7.12502
lthumb 14.2064 53.5256
rfemur 11.1643 3.30046 26.5748
rtibia 36.0054
rfoot -0.764093 7.26192
rtoes -12.6366
lfemur -32.983 -2.47681 -22.1002
ltibia 29.7723
lfoot -2.14435 -1.37699
ltoes -6.4224
259
root 9.73843 16.9164 24.2516 0.643811 34.5292 -0.0861472
lowerback 5.80108 1.26988 0.0898593
upperback -0.634732 1.77871 1.88479
thorax -3.96737 0.904622 1.73389
lowerneck -15.864 -3.70137 -8.98971
upperneck 19.482 -3.66544 3.9793
head 8.9779 -1.94528 2.39174
rclavicle 4.78077e-014 0
rhumerus -30.0766 -12.5709 -75.5665
rradius 39.7181
rwrist -3.32067
rhand -17.6342 13.456
rfingers 7.12502
rthumb 8.62337 -16.3479
lclavicle 4.78077e-014 0
lhumerus -46.1405 26.7244 70.1849
lradius 14.9365
lwrist -26.3034
lhand -12.3903 22.0908
lfingers 7.12502
lthumb 13.6809 51.6211
rfemur 9.74003 2.98048 25.7363
rtibia 39.4482
rfoot 3.91696 8.55555
rtoes -11.1827
lfemur -32.2427 -2.29857 -22.7098
ltibia 30.5731
lfoot -1.45965 -1.66348
ltoes -5.0872
260
root 9.90435 16.9304 24.467 0.413009 34.5653 0.105697
lowerback 5.9767 1.34603 0.209873
upperback -0.593063 1.88284 1.71625
thorax -4.01652 0.951261 1.479
lowerneck -15.6758 -3.80288 -9.06173
upperneck 19.4924 -3.81676 4.03047
head 8.96078 -2.0178 2.40374
rclavicle -3.23895e-014 1.19271e-014
rhumerus -30.9629 -13.2794 -75.3537
rradius 39.6146
rwrist -3.35714
rhand -17.8679 13.3285
rfingers 7.12502
rthumb 8.39787 -16.4845
lclavicle -3.23895e-014 1.19271e-014
lhumerus -45.9939 26.3747 70.097
lradius 14.8124
lwrist -26.627
lhand -12.3981 21.383
lfingers 7.12502
lthumb 13.6734 50.9138
rfemur 8.39655 2.52932 25.129
rtibia 42.8347
rfoot 8.41079 9.5566
rtoes -9.14367
lfemur -31.4444 -1.88341 -23.1814
ltibia 31.3866
lfoot -1.36331 -2.35485
ltoes -3.29047
261
root 10.0718 16.9507 24.6682 0.189171 34.3243 0.285547
lowerback 6.14932 1.43606 0.383012
upperback -0.448524 2.0085 1.55882
thorax -3.95523 1.00743 1.20476
lowerneck -15.8753 -3.90375 -9.27196
upperneck 19.6814 -3.93091 4.22805
head 9.07944 -2.06599 2.49092
rclavicle -1.28005e-013 -6.36111e-015
rhumerus -31.5144 -13.619 -75.3473
rradius 39.3344
rwrist -3.60536
rhand -18.0187 13.322
rfingers 7.12502
rthumb 8.25226 -16.4969
lclavicle -1.28005e-013 -6.36111e-015
lhumerus -45.7284 25.7234 70.4999
lradius 15.1645
lwrist -26.1562
lhand -12.1638 22.4018
lfingers 7.12502
lthumb 13.8991 51.9173
rfemur 6.92609 2.31625 24.4071
rtibia 46.1886
rfoot 12.6904 9.71755
rtoes -4.2714
lfemur -30.7046 -1.13642 -23.7364
ltibia 32.179
lfoot -1.69213 -2.68115
ltoes -3.03168
262
root 10.233 16.9708 24.8673 -0.00466792 33.8569 0.53226
lowerback 6.34136 1.60306 0.341548
upperback -0.240188 2.22432 1.49303
thorax -3.85051 1.11428 1.1371
lowerneck -15.9284 -3.87396 -9.54692
upperneck 19.5186 -3.86493 4.4634
head 9.0388 -2.02835 2.62428
rclavicle 4.79568e-015 2.70347e-014
rhumerus -31.8953 -13.7372 -75.3201
rradius 38.9796
rwrist -3.95271
rhand -18.5494 13.5835
rfingers 7.12502
rthumb 7.7401 -16.2548
lclavicle 4.79568e-015 2.70347e-014
lhumerus -45.9641 27.1894 69.3745
lradius 15.2142
lwrist -28.0919
lhand -11.5948 22.6475
lfingers 7.12502
lthumb 14.4474 52.1246
rfemur 5.40237 2.43405 23.7839
rtibia 49.5318
rfoot 16.2697 9.34317
rtoes 0.269506
lfemur -29.8452 -0.409868 -24.2283
ltibia 32.912
lfoot -2.02883 -2.33525
ltoes -3.3403
